<svg width="9" height="9" viewBox="0 0 9 9" fill="none" xmlns="http://www.w3.org/2000/svg">
<path d="M1.0644 7.80578H7.45094C7.54504 7.80578 7.63529 7.7684 7.70183 7.70186C7.76837 7.63532 7.80575 7.54507 7.80575 7.45097V2.12886C7.80575 2.03476 7.76837 1.94451 7.70183 1.87797C7.63529 1.81143 7.54504 1.77405 7.45094 1.77405H6.03171V1.06443C6.03171 0.970332 5.99433 0.880085 5.92779 0.813546C5.86125 0.747007 5.771 0.709625 5.6769 0.709625C5.5828 0.709625 5.49256 0.747007 5.42602 0.813546C5.35948 0.880085 5.32209 0.970332 5.32209 1.06443V1.77405H3.19325V1.06443C3.19325 0.970332 3.15587 0.880085 3.08933 0.813546C3.02279 0.747007 2.93254 0.709625 2.83844 0.709625C2.74434 0.709625 2.65409 0.747007 2.58755 0.813546C2.52101 0.880085 2.48363 0.970332 2.48363 1.06443V1.77405H1.0644C0.970302 1.77405 0.880055 1.81143 0.813515 1.87797C0.746976 1.94451 0.709595 2.03476 0.709595 2.12886V7.45097C0.709595 7.54507 0.746976 7.63532 0.813515 7.70186C0.880055 7.7684 0.970302 7.80578 1.0644 7.80578ZM1.41921 2.48366H7.09613V3.54809H1.41921V2.48366ZM1.41921 4.2577H7.09613V7.09616H1.41921V4.2577Z" fill="white"/>
</svg>
