<svg width="15" height="15" viewBox="0 0 15 15" fill="none" xmlns="http://www.w3.org/2000/svg">
<g clip-path="url(#clip0_69_4363)">
<path d="M14.4499 7.23242C14.4499 9.13639 13.7115 10.8666 12.5098 12.1552C12.4519 12.2204 12.3939 12.2783 12.336 12.3435C11.2791 13.3932 9.89633 14.1316 8.35433 14.3705H8.22402V9.3391H10.0484L10.3235 7.21794H8.22402V5.8714C8.22402 5.25605 8.39052 4.83616 9.27374 4.83616H10.3959V2.94666C10.2076 2.91771 9.5416 2.85979 8.76697 2.85979C7.14534 2.85979 6.0377 3.84436 6.0377 5.66146V7.22518H4.20612V9.34634H6.0377V14.3705C2.61344 13.7914 0 10.8159 0 7.23242C0 5.23433 0.810818 3.43171 2.12116 2.12137C2.69308 1.54945 3.35187 1.07165 4.08305 0.724152C5.03866 0.260827 6.10286 0.00744629 7.22497 0.00744629C8.34709 0.00744629 9.41852 0.260827 10.3669 0.724152C11.0981 1.07888 11.7641 1.55669 12.3288 2.12137C12.3722 2.1648 12.4084 2.201 12.4446 2.24444C13.6826 3.5403 14.4427 5.29948 14.4427 7.23242H14.4499Z" fill="white"/>
</g>
<defs>
<clipPath id="clip0_69_4363">
<rect width="14.4499" height="14.3631" fill="white"/>
</clipPath>
</defs>
</svg>
