<svg width="15" height="16" viewBox="0 0 15 16" fill="none" xmlns="http://www.w3.org/2000/svg">
<path d="M9.1964 7.71824C9.1964 8.86431 8.37875 9.70678 7.27167 9.75232C6.22248 9.72196 5.35419 8.92503 5.33971 7.73342C5.33248 6.61772 6.12117 5.69935 7.26443 5.69935C8.35703 5.69935 9.20363 6.557 9.1964 7.71824Z" fill="white"/>
<path d="M11.5987 5.00115C11.3816 3.86279 10.5205 3.13424 9.37729 3.12665H5.15881C4.99239 3.12665 4.8332 3.14183 4.67401 3.17219C3.58864 3.39986 2.89401 4.30296 2.88677 5.50203C2.88677 6.97431 2.88677 8.45418 2.88677 9.92646C2.88677 10.0934 2.89401 10.2604 2.93019 10.4273C3.14727 11.5581 4.00108 12.2943 5.12263 12.3018C6.54808 12.3018 7.97354 12.3018 9.39899 12.3018C9.96339 12.3018 10.4771 12.1273 10.904 11.7175C11.4105 11.2394 11.6276 10.6398 11.6349 9.94164C11.6349 9.2055 11.6349 8.46177 11.6349 7.72563C11.6349 6.98949 11.6349 6.25335 11.6349 5.5248C11.6349 5.35025 11.6276 5.1757 11.5914 5.00115H11.5987ZM7.27167 10.7992C5.67256 10.7992 4.33394 9.40282 4.33394 7.72563C4.33394 6.04086 5.67255 4.63688 7.2789 4.63688C8.87801 4.63688 10.2239 6.04086 10.2094 7.71045C10.2383 9.39523 8.87078 10.7992 7.27167 10.7992ZM10.1443 5.1757C9.89103 5.1757 9.7029 4.9708 9.7029 4.69759C9.7029 4.41679 9.89826 4.21948 10.1732 4.22707C10.4265 4.22707 10.6146 4.43956 10.6074 4.71277C10.6074 4.97839 10.412 5.1757 10.1515 5.1757H10.1443Z" fill="white"/>
<path d="M13.9141 4.86455C13.5523 3.93109 13.0169 3.09629 12.3512 2.3981C11.6349 1.64678 10.7521 1.04724 9.78249 0.667788C9.00103 0.364225 8.15444 0.197266 7.27167 0.197266C6.3889 0.197266 5.54232 0.364225 4.76085 0.667788C3.78402 1.04724 2.90848 1.64678 2.19214 2.3981C1.51197 3.11147 0.976521 3.96145 0.614731 4.91767C0.274648 5.78283 0.09375 6.73146 0.09375 7.72563C0.09375 8.7198 0.274648 9.66843 0.614731 10.5336C1.35278 12.4764 2.85059 14.017 4.71742 14.7607C5.51336 15.0794 6.37442 15.254 7.2789 15.254C8.18338 15.254 9.04444 15.0794 9.84038 14.7607C10.7955 14.3812 11.6493 13.7893 12.3584 13.0532C13.0241 12.355 13.5596 11.5202 13.9214 10.5867C14.2687 9.70638 14.4641 8.74257 14.4641 7.72563C14.4641 6.70869 14.2687 5.74488 13.9214 4.86455H13.9141ZM12.6334 10.4349C12.6262 10.4805 12.6117 10.526 12.6045 10.5715C12.4236 11.5657 11.9243 12.3398 11.1066 12.8786C10.7159 13.1215 10.3035 13.2657 9.85485 13.3415H4.68125C4.68125 13.3415 4.63784 13.3264 4.62337 13.3264C3.07491 13.1063 1.88823 11.6719 1.9027 10.0555C1.9027 8.5073 1.9027 6.95154 1.9027 5.39578C1.9027 5.244 1.90993 5.09981 1.93164 4.95562C2.14148 3.33155 3.48011 2.10212 5.02857 2.10212C6.57703 2.10212 8.02418 2.09453 9.522 2.10212C10.535 2.10971 11.3527 2.56506 11.9822 3.39227C12.344 3.87038 12.5466 4.42438 12.6334 5.01633V10.4501V10.4349Z" fill="white"/>
</svg>
