<svg width="16" height="16" viewBox="0 0 16 16" fill="none" xmlns="http://www.w3.org/2000/svg">
<g clip-path="url(#clip0_592_14882)">
<path d="M14.6231 5.26224C14.2611 4.37178 13.7181 3.5682 13.0521 2.90217C12.3354 2.18547 11.4522 1.61355 10.4821 1.25158C9.70025 0.962002 8.85324 0.802734 7.97002 0.802734C7.08681 0.802734 6.2398 0.962002 5.45793 1.25158C4.48061 1.61355 3.60464 2.18547 2.88793 2.90217C2.21466 3.57544 1.6717 4.38626 1.30973 5.29119C0.969476 6.12373 0.78125 7.02866 0.78125 7.98427C0.78125 8.93988 0.962236 9.84481 1.30973 10.6773C2.05539 12.5234 3.54672 13.9858 5.40726 14.6952C6.2036 14.9993 7.06509 15.1658 7.97002 15.1658C8.87495 15.1658 9.73645 14.9993 10.5328 14.6952C11.4884 14.3333 12.3427 13.7686 13.0521 13.0664C13.7181 12.4003 14.2611 11.5968 14.6231 10.7063C14.9706 9.86653 15.1588 8.95435 15.1588 7.98427C15.1588 7.01418 14.9706 6.10201 14.6231 5.26224ZM9.81608 12.1831L7.48498 9.31633L4.90774 12.1759C4.90774 12.1759 4.05348 12.1759 3.58292 12.1759C4.67607 10.9235 5.74751 9.69278 6.84067 8.45483C5.69684 6.96351 4.56748 5.47942 3.40917 3.97361C3.48156 3.97361 6.13844 3.96637 6.13844 3.96637L8.26684 6.58705L10.7427 3.96637H11.959L8.91115 7.44855L12.4802 12.1759H9.81608V12.1831Z" fill="white"/>
<path d="M5.0308 4.68308C5.0308 4.68308 6.29771 6.34815 6.89134 7.13001C7.92658 8.47655 10.1201 11.271 10.1201 11.271C10.1201 11.271 10.569 11.271 10.8368 11.271C10.54 10.88 5.8199 4.68308 5.8199 4.68308H5.0308Z" fill="white"/>
</g>
<defs>
<clipPath id="clip0_592_14882">
<rect width="14.3703" height="14.3631" fill="white" transform="translate(0.789062 0.794922)"/>
</clipPath>
</defs>
</svg>
